<svg width="28" height="28" viewBox="0 0 28 28" fill="none" xmlns="http://www.w3.org/2000/svg">
<path d="M22.8113 3.49648C22.5304 3.51691 22.2547 3.58281 21.9949 3.6916H21.9914C21.742 3.79048 20.5564 4.28923 18.7539 5.04523L12.2946 7.7656C7.65976 9.71685 3.10364 11.6384 3.10364 11.6384L3.15789 11.6174C3.15789 11.6174 2.84376 11.7206 2.51564 11.9455C2.31292 12.0745 2.13849 12.2432 2.00289 12.4416C1.84189 12.6779 1.71239 13.0392 1.76051 13.4129C1.83926 14.0446 2.24876 14.4235 2.54276 14.6326C2.84026 14.8444 3.12376 14.9432 3.12376 14.9432H3.13076L7.40339 16.3826C7.59501 16.9977 8.70539 20.6482 8.97226 21.4891C9.12976 21.9914 9.28289 22.3055 9.47451 22.5452C9.56726 22.6677 9.67576 22.7701 9.80614 22.8524C9.87391 22.8918 9.94618 22.9229 10.0214 22.9451L9.97764 22.9346C9.99076 22.9381 10.0013 22.9486 10.0109 22.9521C10.0459 22.9617 10.0695 22.9652 10.1141 22.9722C10.7905 23.177 11.3339 22.757 11.3339 22.757L11.3645 22.7325L13.8871 20.4356L18.1151 23.6792L18.2114 23.7204C19.0925 24.1071 19.985 23.8919 20.4566 23.5121C20.9318 23.1297 21.1164 22.6406 21.1164 22.6406L21.147 22.5619L24.4143 5.82398C24.507 5.41098 24.5306 5.02423 24.4283 4.64885C24.3227 4.26895 24.0789 3.94221 23.7449 3.73273C23.4644 3.5622 23.1391 3.47989 22.8113 3.49648ZM22.7229 5.29023C22.7194 5.34535 22.7299 5.33923 22.7054 5.4451V5.45473L19.4688 22.0185C19.4548 22.0421 19.4311 22.0937 19.3664 22.1454C19.2981 22.1996 19.2439 22.2337 18.9595 22.1209L13.7883 18.1562L10.6645 21.0035L11.3208 16.8122L19.7698 8.93723C20.118 8.61348 20.0016 8.54523 20.0016 8.54523C20.0261 8.14798 19.4758 8.42885 19.4758 8.42885L8.82176 15.029L8.81826 15.0115L3.71176 13.2921V13.2886L3.69864 13.286C3.70759 13.283 3.71635 13.2795 3.72489 13.2755L3.75289 13.2615L3.78001 13.2519C3.78001 13.2519 8.33964 11.3304 12.9745 9.3791C15.295 8.40173 17.633 7.41735 19.4311 6.65785C21.2293 5.90273 22.5584 5.34885 22.6336 5.3191C22.7054 5.2911 22.6713 5.2911 22.7229 5.2911V5.29023Z" fill="#F2F2F2"/>
</svg>
