<svg width="28" height="28" viewBox="0 0 28 28" fill="none" xmlns="http://www.w3.org/2000/svg">
<g clip-path="url(#clip0_1_429)">
<path d="M14.1692 22.75C18.2198 22.75 16.7755 20.1857 17.0882 19.4483C17.0835 18.8977 17.0788 18.368 17.0975 18.046C17.3542 18.1183 17.9597 18.4252 19.2103 19.6408C21.1412 21.5892 21.6347 22.75 23.1945 22.75H26.0657C26.9757 22.75 27.4493 22.3732 27.6862 22.057C27.9148 21.7513 28.1388 21.2147 27.8938 20.3793C27.2533 18.368 23.5177 14.8948 23.2855 14.5285C23.3205 14.4608 23.3765 14.371 23.4057 14.3243H23.4033C24.1407 13.3502 26.9547 9.13383 27.3688 7.44683C27.37 7.4445 27.3712 7.441 27.3712 7.4375C27.5952 6.6675 27.3898 6.16817 27.1775 5.88583C26.8578 5.4635 26.3492 5.25 25.662 5.25H22.7908C21.8295 5.25 21.1003 5.73417 20.7317 6.61733C20.1145 8.1865 18.3808 11.4135 17.0812 12.5557C17.0415 10.9375 17.0683 9.702 17.0893 8.78383C17.1313 6.993 17.2667 5.25 15.4082 5.25H10.8955C9.73117 5.25 8.617 6.52167 9.82333 8.03133C10.878 9.35433 10.2025 10.0917 10.43 13.762C9.54333 12.8112 7.966 10.2433 6.85067 6.9615C6.538 6.07367 6.06433 5.25117 4.73083 5.25117H1.85967C0.695333 5.25117 0 5.88583 0 6.94867C0 9.33566 5.28383 22.75 14.1692 22.75ZM4.73083 7.00117C4.984 7.00117 5.00967 7.00117 5.1975 7.53433C6.33967 10.8978 8.90167 15.8748 10.773 15.8748C12.1788 15.8748 12.1788 14.434 12.1788 13.8915L12.1777 9.5725C12.1007 8.14333 11.5803 7.43167 11.2385 7L15.3312 7.00467C15.3335 7.0245 15.3078 11.7822 15.3428 12.9348C15.3428 14.5717 16.6425 15.5097 18.6713 13.4563C20.8122 11.0402 22.2927 7.42817 22.3522 7.28117C22.4397 7.07117 22.5155 7 22.7908 7H25.662H25.6737C25.6725 7.0035 25.6725 7.007 25.6713 7.0105C25.4088 8.2355 22.8177 12.1392 21.9508 13.3513C21.9368 13.37 21.924 13.3898 21.9112 13.4097C21.5297 14.0327 21.2193 14.721 21.9637 15.6893H21.9648C22.0325 15.771 22.2087 15.9623 22.4653 16.2283C23.2633 17.052 26.0003 19.8683 26.243 20.9883C26.082 21.014 25.907 20.9953 23.1945 21.0012C22.617 21.0012 22.1655 20.1378 20.4423 18.3995C18.893 16.8922 17.8873 16.2762 16.9715 16.2762C15.1935 16.2762 15.323 17.7193 15.3393 19.4647C15.3452 21.357 15.3335 20.7585 15.3463 20.8775C15.2425 20.9183 14.945 21 14.1692 21C6.76667 21 1.946 9.2505 1.7605 7.00467C1.82467 6.99883 2.70783 7.00233 4.73083 7.00117Z" fill="#F2F2F2"/>
</g>
<defs>
<clipPath id="clip0_1_429">
<rect width="28" height="28" fill="white"/>
</clipPath>
</defs>
</svg>
