<svg width="32" height="32" viewBox="0 0 32 32" fill="none" xmlns="http://www.w3.org/2000/svg">
<rect width="32" height="32" rx="16" fill="#4174CB"/>
<path fill-rule="evenodd" clip-rule="evenodd" d="M7.63799 7.30169L7.545 7.29196C7.20658 7.27959 6.90267 7.51891 6.84331 7.86187L6.83359 7.95486C6.82122 8.29328 7.06054 8.59719 7.40349 8.65654L8.78675 8.89578L9.62507 18.8835L9.64242 19.0336C9.81108 20.1726 10.7907 21.0288 11.9574 21.0288H21.9601L22.1107 21.024C23.2074 20.954 24.1166 20.1246 24.2767 19.023L25.1467 13.0111L25.1617 12.873C25.2417 11.7738 24.371 10.8199 23.2498 10.8199H10.3277L10.1125 8.25161L10.0963 8.15C10.0335 7.8857 9.81869 7.67912 9.54466 7.63169L7.63799 7.30169ZM11.8511 19.648C11.3971 19.5983 11.0341 19.2337 10.9953 18.7689L10.4432 12.1949H23.2498L23.3306 12.2008C23.6201 12.2438 23.8292 12.5145 23.7858 12.8142L22.9159 18.8257L22.8941 18.9331C22.7838 19.3535 22.4029 19.6538 21.9601 19.6538H11.9574L11.8511 19.648ZM10.4159 23.8698C10.4159 23.1034 11.0371 22.4811 11.8038 22.4811C12.5703 22.4811 13.1925 23.1033 13.1925 23.8698C13.1925 24.6364 12.5702 25.2576 11.8038 25.2576C11.0372 25.2576 10.4159 24.6363 10.4159 23.8698ZM20.7297 23.8698C20.7297 23.1033 21.3519 22.4811 22.1185 22.4811C22.885 22.4811 23.5072 23.1033 23.5072 23.8698C23.5072 24.6364 22.8849 25.2576 22.1185 25.2576C21.352 25.2576 20.7297 24.6364 20.7297 23.8698Z" fill="white"/>
</svg>
