<svg width="38" height="32" viewBox="0 0 38 32" fill="none" xmlns="http://www.w3.org/2000/svg">
<path fill-rule="evenodd" clip-rule="evenodd" d="M9.1441 3.75372C4.24865 5.32983 2.06511 10.6742 3.70639 15.7727C4.53925 18.1735 5.89375 20.3313 7.67334 22.1016C10.1146 24.4727 12.7967 26.5592 15.6798 28.3321L16.0072 28.5282C16.3208 28.7158 16.713 28.7126 17.0234 28.5196L17.3291 28.3297C20.2082 26.5592 22.8902 24.4727 25.3232 22.1098C27.1111 20.3313 28.4656 18.1735 29.2915 15.7935C30.9388 10.6773 28.7462 5.33039 23.8493 3.75379L23.495 3.6483C21.2498 3.03078 18.8639 3.33506 16.8526 4.47379L16.4951 4.68572L16.1439 4.47497C14.0225 3.27125 11.4872 3.00004 9.1441 3.75372ZM15.6662 6.47236L15.9285 6.6605C16.2743 6.90815 16.7408 6.90322 17.0813 6.64833C18.8546 5.32075 21.1496 4.93442 23.2521 5.60891C27.0462 6.83045 28.7729 11.0413 27.4419 15.176C26.7199 17.2556 25.5249 19.1594 23.9555 20.7207L23.2515 21.3895C21.3546 23.1522 19.3034 24.7479 17.1255 26.1541L16.5016 26.5465L16.692 26.6665C13.9406 24.9744 11.3716 22.9758 9.04105 20.7125C7.48003 19.1594 6.28498 17.2556 5.55605 15.1551C4.23073 11.0373 5.94991 6.82949 9.74201 5.6086C11.7444 4.96451 13.9274 5.28385 15.6662 6.47236Z" fill="#4174CB"/>
<circle cx="29.833" cy="8" r="6.9" fill="#FFB745" stroke="white" stroke-width="1.8"/>
</svg>
