<svg width="28" height="24" viewBox="0 0 28 24" fill="none" xmlns="http://www.w3.org/2000/svg">
<path fill-rule="evenodd" clip-rule="evenodd" d="M14 2.66667C13.5473 2.14512 13.0194 1.68972 12.4371 1.30987C11.1502 0.47045 9.59725 0 8.00002 0C3.89335 0 0.666687 3.16512 0.666687 7.19346C0.666687 8.62481 1.00768 9.98402 1.59179 11.2771C3.40349 15.2915 7.55437 18.6791 11.1273 21.595C12.156 22.4346 13.1368 23.235 14 24C14.8633 23.235 15.844 22.4346 16.8727 21.595C20.4456 18.6791 24.5964 15.2916 26.4082 11.2773C26.9923 9.98417 27.3334 8.62489 27.3334 7.19346C27.3334 3.16512 24.1067 0 20 0C18.4028 0 16.8498 0.47045 15.5629 1.30987C14.9806 1.68972 14.4528 2.14512 14 2.66667ZM14 20.4932C14.4304 20.1366 14.8703 19.7769 15.3096 19.4177C15.6817 19.1135 16.0532 18.8097 16.4181 18.5085C17.8788 17.3025 19.3085 16.0774 20.5746 14.7934C22.1413 13.2044 23.3058 11.6751 23.9838 10.1656C24.431 9.16894 24.6667 8.18177 24.6667 7.19346C24.6667 4.68606 22.6826 2.66667 20 2.66667C18.4154 2.66667 16.9367 3.35164 16.0137 4.41482L14 6.73445L11.9863 4.41482C11.0633 3.35164 9.5846 2.66667 8.00002 2.66667C5.31747 2.66667 3.33335 4.68606 3.33335 7.19346C3.33335 8.18177 3.56901 9.16894 4.0162 10.1656C4.69428 11.6751 5.85872 13.2044 7.42548 14.7934C8.69154 16.0774 10.1213 17.3025 11.5819 18.5085C11.9468 18.8097 12.3184 19.1135 12.6905 19.4177C13.1297 19.7769 13.5696 20.1366 14 20.4932Z" fill="#4174CB"/>
</svg>
