<svg width="100" height="16" viewBox="0 0 100 16" fill="none" xmlns="http://www.w3.org/2000/svg">
<g clip-path="url(#clip0_56_320)">
<path d="M8.00015 0.391357L10.472 5.40043L16 6.2039L11.9999 10.1027L12.9442 15.6084L8.00015 13.0091L3.05582 15.6084L4.00007 10.1027L0 6.2039L5.52799 5.40043L8.00015 0.391357Z" fill="#FFB745"/>
<path d="M3.23261 15.6224C3.17332 15.6224 3.11404 15.6041 3.06421 15.5677C2.976 15.5035 2.93189 15.395 2.95051 15.2876L3.83575 10.1273L0.0865632 6.47323C0.00866385 6.39705 -0.0194028 6.28335 0.0141054 6.17996C0.0478999 6.07628 0.137541 6.00067 0.245512 5.98492L5.42639 5.23199L7.74361 0.537127C7.79172 0.439181 7.89139 0.377319 8.00022 0.377319C8.10933 0.377319 8.209 0.439181 8.25682 0.537127L10.5738 5.23199L15.7549 5.98492C15.8629 6.00067 15.9522 6.076 15.9863 6.17996C16.0198 6.28335 15.9921 6.39733 15.9139 6.47323L12.1647 10.1279L13.0496 15.2879C13.068 15.3953 13.0239 15.5038 12.9359 15.568C12.8477 15.6327 12.7306 15.641 12.6341 15.5897L8.00022 13.1537L3.36578 15.5897C3.32397 15.6115 3.27814 15.6224 3.23261 15.6224ZM0.901928 6.46807L4.34324 9.82261C4.41055 9.88819 4.44148 9.98328 4.42544 10.0761L3.61294 14.8125L7.86704 12.5763C7.95038 12.5322 8.04976 12.5322 8.13367 12.5763L12.3872 14.8125L11.575 10.0761C11.559 9.98328 11.5899 9.88848 11.6572 9.82261L15.0985 6.46807L10.3429 5.777C10.2496 5.76354 10.1691 5.70483 10.1273 5.62034L8.00022 1.31125L5.87316 5.62063C5.83135 5.70512 5.75087 5.76383 5.65751 5.77729L0.901928 6.46807Z" fill="#FFB745"/>
</g>
<g clip-path="url(#clip1_56_320)">
<path d="M29.0001 0.391357L31.472 5.40043L37 6.2039L32.9999 10.1027L33.9442 15.6084L29.0001 13.0091L24.0558 15.6084L25.0001 10.1027L21 6.2039L26.528 5.40043L29.0001 0.391357Z" fill="#FFB745"/>
<path d="M24.2326 15.6224C24.1733 15.6224 24.114 15.6041 24.0642 15.5677C23.976 15.5035 23.9319 15.395 23.9505 15.2876L24.8358 10.1273L21.0866 6.47323C21.0087 6.39705 20.9806 6.28335 21.0141 6.17996C21.0479 6.07628 21.1375 6.00067 21.2455 5.98492L26.4264 5.23199L28.7436 0.537127C28.7917 0.439181 28.8914 0.377319 29.0002 0.377319C29.1093 0.377319 29.209 0.439181 29.2568 0.537127L31.5738 5.23199L36.7549 5.98492C36.8629 6.00067 36.9522 6.076 36.9863 6.17996C37.0198 6.28335 36.9921 6.39733 36.9139 6.47323L33.1647 10.1279L34.0496 15.2879C34.068 15.3953 34.0239 15.5038 33.9359 15.568C33.8477 15.6327 33.7306 15.641 33.6341 15.5897L29.0002 13.1537L24.3658 15.5897C24.324 15.6115 24.2781 15.6224 24.2326 15.6224ZM21.9019 6.46807L25.3432 9.82261C25.4105 9.88819 25.4415 9.98328 25.4254 10.0761L24.6129 14.8125L28.867 12.5763C28.9504 12.5322 29.0498 12.5322 29.1337 12.5763L33.3872 14.8125L32.575 10.0761C32.559 9.98328 32.5899 9.88848 32.6572 9.82261L36.0985 6.46807L31.3429 5.777C31.2496 5.76354 31.1691 5.70483 31.1273 5.62034L29.0002 1.31125L26.8732 5.62063C26.8313 5.70512 26.7509 5.76383 26.6575 5.77729L21.9019 6.46807Z" fill="#FFB745"/>
</g>
<g clip-path="url(#clip2_56_320)">
<path d="M50.0001 0.391357L52.472 5.40043L58 6.2039L53.9999 10.1027L54.9442 15.6084L50.0001 13.0091L45.0558 15.6084L46.0001 10.1027L42 6.2039L47.528 5.40043L50.0001 0.391357Z" fill="#FFB745"/>
<path d="M45.2326 15.6224C45.1733 15.6224 45.114 15.6041 45.0642 15.5677C44.976 15.5035 44.9319 15.395 44.9505 15.2876L45.8358 10.1273L42.0866 6.47323C42.0087 6.39705 41.9806 6.28335 42.0141 6.17996C42.0479 6.07628 42.1375 6.00067 42.2455 5.98492L47.4264 5.23199L49.7436 0.537127C49.7917 0.439181 49.8914 0.377319 50.0002 0.377319C50.1093 0.377319 50.209 0.439181 50.2568 0.537127L52.5738 5.23199L57.7549 5.98492C57.8629 6.00067 57.9522 6.076 57.9863 6.17996C58.0198 6.28335 57.9921 6.39733 57.9139 6.47323L54.1647 10.1279L55.0496 15.2879C55.068 15.3953 55.0239 15.5038 54.9359 15.568C54.8477 15.6327 54.7306 15.641 54.6341 15.5897L50.0002 13.1537L45.3658 15.5897C45.324 15.6115 45.2781 15.6224 45.2326 15.6224ZM42.9019 6.46807L46.3432 9.82261C46.4105 9.88819 46.4415 9.98328 46.4254 10.0761L45.6129 14.8125L49.867 12.5763C49.9504 12.5322 50.0498 12.5322 50.1337 12.5763L54.3872 14.8125L53.575 10.0761C53.559 9.98328 53.5899 9.88848 53.6572 9.82261L57.0985 6.46807L52.3429 5.777C52.2496 5.76354 52.1691 5.70483 52.1273 5.62034L50.0002 1.31125L47.8732 5.62063C47.8313 5.70512 47.7509 5.76383 47.6575 5.77729L42.9019 6.46807Z" fill="#FFB745"/>
</g>
<g clip-path="url(#clip3_56_320)">
<path d="M71.0001 0.391357L73.472 5.40043L79 6.2039L74.9999 10.1027L75.9442 15.6084L71.0001 13.0091L66.0558 15.6084L67.0001 10.1027L63 6.2039L68.528 5.40043L71.0001 0.391357Z" fill="#FFB745"/>
<path d="M66.2326 15.6224C66.1733 15.6224 66.114 15.6041 66.0642 15.5677C65.976 15.5035 65.9319 15.395 65.9505 15.2876L66.8358 10.1273L63.0866 6.47323C63.0087 6.39705 62.9806 6.28335 63.0141 6.17996C63.0479 6.07628 63.1375 6.00067 63.2455 5.98492L68.4264 5.23199L70.7436 0.537127C70.7917 0.439181 70.8914 0.377319 71.0002 0.377319C71.1093 0.377319 71.209 0.439181 71.2568 0.537127L73.5738 5.23199L78.7549 5.98492C78.8629 6.00067 78.9522 6.076 78.9863 6.17996C79.0198 6.28335 78.9921 6.39733 78.9139 6.47323L75.1647 10.1279L76.0496 15.2879C76.068 15.3953 76.0239 15.5038 75.9359 15.568C75.8477 15.6327 75.7306 15.641 75.6341 15.5897L71.0002 13.1537L66.3658 15.5897C66.324 15.6115 66.2781 15.6224 66.2326 15.6224ZM63.9019 6.46807L67.3432 9.82261C67.4105 9.88819 67.4415 9.98328 67.4254 10.0761L66.6129 14.8125L70.867 12.5763C70.9504 12.5322 71.0498 12.5322 71.1337 12.5763L75.3872 14.8125L74.575 10.0761C74.559 9.98328 74.5899 9.88848 74.6572 9.82261L78.0985 6.46807L73.3429 5.777C73.2496 5.76354 73.1691 5.70483 73.1273 5.62034L71.0002 1.31125L68.8732 5.62063C68.8313 5.70512 68.7509 5.76383 68.6575 5.77729L63.9019 6.46807Z" fill="#FFB745"/>
</g>
<g clip-path="url(#clip4_56_320)">
<path d="M87.2325 15.6224C87.1733 15.6224 87.114 15.6041 87.0641 15.5677C86.9759 15.5035 86.9318 15.395 86.9504 15.2876L87.8357 10.1273L84.0865 6.47323C84.0086 6.39705 83.9805 6.28335 84.014 6.17996C84.0478 6.07628 84.1375 6.00068 84.2455 5.98492L89.4263 5.23199L91.7435 0.537127C91.7917 0.439181 91.8913 0.377319 92.0002 0.377319C92.1093 0.377319 92.2089 0.439181 92.2568 0.537127L94.5737 5.23199L99.7549 5.98492C99.8628 6.00068 99.9522 6.076 99.9863 6.17996C100.02 6.28335 99.992 6.39733 99.9138 6.47323L96.1646 10.1279L97.0496 15.2879C97.0679 15.3953 97.0238 15.5038 96.9359 15.568C96.8477 15.6327 96.7305 15.641 96.634 15.5897L92.0002 13.1537L87.3657 15.5897C87.3239 15.6115 87.2781 15.6224 87.2325 15.6224ZM84.9019 6.46807L88.3432 9.82261C88.4105 9.88819 88.4414 9.98328 88.4254 10.0761L87.6129 14.8125L91.867 12.5763C91.9503 12.5322 92.0497 12.5322 92.1336 12.5763L96.3871 14.8125L95.5749 10.0761C95.5589 9.98328 95.5898 9.88848 95.6571 9.82261L99.0984 6.46807L94.3429 5.777C94.2495 5.76354 94.169 5.70483 94.1272 5.62034L92.0002 1.31125L89.8731 5.62063C89.8313 5.70512 89.7508 5.76383 89.6574 5.77729L84.9019 6.46807Z" fill="#FFB745"/>
</g>
<defs>
<clipPath id="clip0_56_320">
<rect width="16" height="16" fill="white"/>
</clipPath>
<clipPath id="clip1_56_320">
<rect width="16" height="16" fill="white" transform="translate(21)"/>
</clipPath>
<clipPath id="clip2_56_320">
<rect width="16" height="16" fill="white" transform="translate(42)"/>
</clipPath>
<clipPath id="clip3_56_320">
<rect width="16" height="16" fill="white" transform="translate(63)"/>
</clipPath>
<clipPath id="clip4_56_320">
<rect width="16" height="16" fill="white" transform="translate(84)"/>
</clipPath>
</defs>
</svg>
