<svg width="28" height="29" viewBox="0 0 28 29" fill="none" xmlns="http://www.w3.org/2000/svg">
<path d="M22.8112 4.44182C22.5304 4.46226 22.2546 4.52815 21.9949 4.63694H21.9914C21.742 4.73582 20.5564 5.23457 18.7539 5.99057L12.2946 8.71094C7.65975 10.6622 3.10362 12.5837 3.10362 12.5837L3.15787 12.5627C3.15787 12.5627 2.84375 12.6659 2.51562 12.8908C2.31291 13.0198 2.13847 13.1886 2.00287 13.3869C1.84187 13.6232 1.71237 13.9846 1.7605 14.3582C1.83925 14.9899 2.24875 15.3688 2.54275 15.5779C2.84025 15.7897 3.12375 15.8886 3.12375 15.8886H3.13075L7.40337 17.3279C7.595 17.9431 8.70537 21.5936 8.97225 22.4344C9.12975 22.9367 9.28287 23.2508 9.4745 23.4906C9.56725 23.6131 9.67575 23.7154 9.80612 23.7977C9.8739 23.8371 9.94617 23.8683 10.0214 23.8904L9.97762 23.8799C9.99075 23.8834 10.0012 23.8939 10.0109 23.8974C10.0459 23.9071 10.0695 23.9106 10.1141 23.9176C10.7905 24.1223 11.3339 23.7023 11.3339 23.7023L11.3645 23.6778L13.8871 21.3809L18.1151 24.6246L18.2114 24.6657C19.0925 25.0524 19.985 24.8372 20.4566 24.4574C20.9317 24.0751 21.1164 23.5859 21.1164 23.5859L21.147 23.5072L24.4142 6.76932C24.507 6.35632 24.5306 5.96957 24.4282 5.59419C24.3227 5.21429 24.0789 4.88755 23.7449 4.67807C23.4644 4.50755 23.1391 4.42524 22.8112 4.44182ZM22.7229 6.23557C22.7194 6.29069 22.7299 6.28457 22.7054 6.39044V6.40007L19.4687 22.9638C19.4547 22.9874 19.4311 23.0391 19.3664 23.0907C19.2981 23.1449 19.2439 23.1791 18.9595 23.0662L13.7882 19.1016L10.6645 21.9488L11.3207 17.7576L19.7697 9.88257C20.118 9.55882 20.0016 9.49057 20.0016 9.49057C20.0261 9.09332 19.4757 9.37419 19.4757 9.37419L8.82175 15.9743L8.81825 15.9568L3.71175 14.2374V14.2339L3.69862 14.2313C3.70757 14.2283 3.71634 14.2248 3.72487 14.2208L3.75287 14.2068L3.78 14.1972C3.78 14.1972 8.33962 12.2757 12.9745 10.3244C15.295 9.34707 17.633 8.36269 19.4311 7.60319C21.2292 6.84807 22.5584 6.29419 22.6336 6.26444C22.7054 6.23644 22.6712 6.23644 22.7229 6.23644V6.23557Z" fill="#153E84"/>
</svg>
