<svg width="243" height="41" viewBox="0 0 243 41" fill="none" xmlns="http://www.w3.org/2000/svg">
<path fill-rule="evenodd" clip-rule="evenodd" d="M7.13104 0.549144C7.13104 0.851173 7.00762 1.09829 6.85677 1.09829C6.70592 1.09829 6.5825 1.3454 6.5825 1.64743C6.5825 1.94946 6.49007 2.19767 6.3768 2.19877C6.26353 2.19987 6.03533 2.47801 5.86912 2.81656C5.70319 3.1551 5.27121 3.98816 4.90918 4.66772C4.54741 5.34729 4.15877 5.94448 4.0455 5.99473C3.93222 6.04525 3.83979 6.32311 3.83979 6.61251C3.83979 6.90191 3.71637 7.13887 3.56552 7.13887C3.41467 7.13887 3.29125 7.38598 3.29125 7.68801C3.29125 7.99004 3.16783 8.23715 3.01698 8.23715C2.86613 8.23715 2.74271 8.48427 2.74271 8.7863C2.74271 9.08833 2.61929 9.33544 2.46844 9.33544C2.31759 9.33544 2.19417 9.58255 2.19417 9.88458C2.19417 10.1866 2.08501 10.4337 1.95199 10.4337C1.81869 10.4337 1.63904 10.6501 1.55265 10.9142C1.46625 11.1784 1.08145 11.9233 0.697745 12.5691C0.0463518 13.6652 0 13.9804 0 17.3054C0 19.2645 0.103949 20.8675 0.23121 20.8675C0.358198 20.8675 0.757811 20.2804 1.11875 19.5632C1.47997 18.8461 1.83871 18.1972 1.91633 18.1217C1.99368 18.0462 2.32335 17.4691 2.64863 16.8392C2.97419 16.2093 3.89766 14.4178 4.70073 12.8579C5.50407 11.2981 6.22595 9.96009 6.30521 9.88458C6.3842 9.80908 7.23993 8.20283 8.20673 6.31515C9.17327 4.42747 10.204 2.45055 10.4966 1.922C10.7895 1.39345 11.1384 0.826186 11.272 0.661169C11.4056 0.496151 11.4335 0.280063 11.3342 0.180668C11.235 0.0812733 10.2487 0 9.14227 0C7.31398 0 7.13104 0.0499721 7.13104 0.549144ZM12.0679 0.549144C12.0679 0.851173 11.9445 1.09829 11.7936 1.09829C11.6428 1.09829 11.5194 1.3454 11.5194 1.64743C11.5194 1.94946 11.396 2.19657 11.2451 2.19657C11.0943 2.19657 10.9708 2.43353 10.9708 2.72293C10.9708 3.01233 10.8784 3.29019 10.7651 3.34071C10.6519 3.39096 10.3359 3.80282 10.0625 4.25586C9.78928 4.70891 9.49718 5.29594 9.41353 5.56008C9.3296 5.82422 9.15215 6.04058 9.01885 6.04058C8.88583 6.04058 8.77667 6.28769 8.77667 6.58972C8.77667 6.89175 8.65325 7.13887 8.5024 7.13887C8.35155 7.13887 8.22813 7.38598 8.22813 7.68801C8.22813 7.99004 8.10471 8.23715 7.95386 8.23715C7.80301 8.23715 7.67959 8.48427 7.67959 8.7863C7.67959 9.08833 7.55616 9.33544 7.40531 9.33544C7.25447 9.33544 7.13104 9.58255 7.13104 9.88458C7.13104 10.1866 7.00762 10.4337 6.85677 10.4337C6.70592 10.4337 6.5825 10.6808 6.5825 10.9829C6.5825 11.2849 6.49007 11.5331 6.3768 11.5342C6.26353 11.5353 6.03533 11.8135 5.86912 12.152C5.70319 12.4905 5.27121 13.3236 4.90918 14.0032C4.54741 14.6827 4.15877 15.2799 4.0455 15.3302C3.9325 15.3807 3.83979 15.6586 3.83979 15.948C3.83979 16.2376 3.71637 16.4743 3.56552 16.4743C3.41467 16.4743 3.29125 16.7214 3.29125 17.0235C3.29125 17.3255 3.16783 17.5726 3.01698 17.5726C2.86613 17.5726 2.74271 17.8197 2.74271 18.1217C2.74271 18.4238 2.61929 18.6709 2.46844 18.6709C2.31759 18.6709 2.19417 18.918 2.19417 19.22C2.19417 19.5221 2.08501 19.7692 1.95199 19.7692C1.81869 19.7692 1.63904 19.9853 1.55265 20.2497C1.46625 20.5141 1.08145 21.2587 0.697745 21.9045C0.0693906 22.9622 0 23.3647 0 25.9544C0 27.536 0.102852 28.83 0.228742 28.83C0.354632 28.83 1.23888 27.3166 2.19389 25.4665C3.1489 23.6167 4.17523 21.6706 4.47473 21.142C4.77423 20.6135 5.41301 19.4397 5.89381 18.5336C6.37488 17.6275 7.37323 15.7124 8.11266 14.2777C8.85182 12.8431 9.51967 11.6075 9.59674 11.532C9.67354 11.4565 10.3408 10.2209 11.0794 8.7863C11.8178 7.35166 12.8175 5.43652 13.3008 4.53043C13.784 3.62435 14.445 2.41596 14.7695 1.84512C15.0937 1.27401 15.3592 0.625475 15.3592 0.403621C15.3592 0.0933544 14.9782 0 13.7135 0C12.2509 0 12.0679 0.0609549 12.0679 0.549144ZM17.0048 0.526354C17.0048 0.815753 16.9124 1.09362 16.7991 1.14414C16.6858 1.19439 16.3699 1.60624 16.0964 2.05929C15.8232 2.51233 15.5311 3.09909 15.4475 3.3635C15.3636 3.62764 15.1861 3.844 15.0528 3.844C14.9198 3.844 14.8106 4.09112 14.8106 4.39315C14.8106 4.69518 14.6872 4.94229 14.5364 4.94229C14.3855 4.94229 14.2621 5.18941 14.2621 5.49144C14.2621 5.79346 14.1387 6.04058 13.9878 6.04058C13.837 6.04058 13.7135 6.28769 13.7135 6.58972C13.7135 6.89175 13.5901 7.13887 13.4393 7.13887C13.2884 7.13887 13.165 7.38598 13.165 7.68801C13.165 7.99004 13.0416 8.23715 12.8907 8.23715C12.7399 8.23715 12.6165 8.48427 12.6165 8.7863C12.6165 9.08833 12.524 9.33654 12.4108 9.33764C12.2975 9.33873 12.0693 9.61688 11.9031 9.95542C11.7371 10.294 11.3052 11.127 10.9431 11.8066C10.5814 12.4862 10.1927 13.0833 10.0795 13.1336C9.96646 13.1841 9.87375 13.462 9.87375 13.7514C9.87375 14.0411 9.75033 14.2777 9.59948 14.2777C9.44863 14.2777 9.32521 14.5248 9.32521 14.8269C9.32521 15.1289 9.20179 15.376 9.05094 15.376C8.90009 15.376 8.77667 15.6231 8.77667 15.9252C8.77667 16.2272 8.65325 16.4743 8.5024 16.4743C8.35155 16.4743 8.22813 16.7214 8.22813 17.0235C8.22813 17.3255 8.1357 17.5737 8.02242 17.5748C7.90915 17.5759 7.68096 17.854 7.51475 18.1926C7.34881 18.5311 6.91684 19.3642 6.5548 20.0437C6.19304 20.7233 5.8044 21.3205 5.69112 21.3707C5.57812 21.4213 5.48542 21.6991 5.48542 21.9885C5.48542 22.2782 5.362 22.5149 5.21115 22.5149C5.0603 22.5149 4.93688 22.762 4.93688 23.064C4.93688 23.3661 4.81345 23.6132 4.66261 23.6132C4.51176 23.6132 4.38833 23.8603 4.38833 24.1623C4.38833 24.4643 4.26491 24.7115 4.11406 24.7115C3.96321 24.7115 3.83979 24.9481 3.83979 25.2378C3.83979 25.5272 3.74736 25.8051 3.63409 25.8556C3.52109 25.9058 3.13217 26.503 2.77041 27.1826C2.40837 27.8622 1.9764 28.6952 1.81046 29.0338C1.64425 29.3723 1.41579 29.6505 1.30279 29.6516C1.18979 29.6527 1.09708 29.9009 1.09708 30.2029C1.09708 30.5049 0.973662 30.752 0.822813 30.752C0.671964 30.752 0.548542 30.9992 0.548542 31.3012C0.548542 31.6032 0.42512 31.8503 0.274271 31.8503C0.102577 31.8503 0 33.5282 0 36.3349C0 38.8017 0.0781672 40.8977 0.173339 40.9933C0.268786 41.0888 0.874102 40.152 1.51864 38.9112C2.1629 37.6704 3.12696 35.8522 3.66069 34.8706C4.19443 33.889 5.34444 31.7032 6.21635 30.0129C7.27312 27.9646 7.98704 26.8902 8.35786 26.7905C8.66367 26.7081 11.6499 26.6392 14.9938 26.6373C18.338 26.6351 21.2692 26.7084 21.5078 26.8001C21.7464 26.8918 21.9417 27.2007 21.9417 27.4866C21.9417 27.7724 22.0651 28.0063 22.2159 28.0063C22.3668 28.0063 22.4902 28.2534 22.4902 28.5555C22.4902 28.8575 22.6136 29.1046 22.7645 29.1046C22.9153 29.1046 23.0388 29.3517 23.0388 29.6538C23.0388 29.9558 23.1622 30.2029 23.313 30.2029C23.4639 30.2029 23.5873 30.45 23.5873 30.752C23.5873 31.0541 23.6805 31.3012 23.7946 31.3012C23.9087 31.3012 24.1657 31.6719 24.3662 32.1249C24.7203 32.9255 24.7834 32.9486 26.6273 32.9486C28.1882 32.9486 28.5242 32.8704 28.5242 32.5066C28.5242 32.2633 28.124 31.3059 27.635 30.3786C27.1462 29.4514 26.6526 28.6516 26.5379 28.6013C26.4235 28.5508 26.33 28.2831 26.33 28.0063C26.33 27.7296 26.2373 27.4618 26.1238 27.4113C26.0105 27.3611 25.2455 26.0225 24.4241 24.4369C23.6027 22.8512 22.8007 21.2768 22.6419 20.9383C22.4831 20.5997 22.2604 20.3216 22.1474 20.3205C22.0344 20.3194 21.9417 20.0712 21.9417 19.7692C21.9417 19.4671 21.8183 19.22 21.6674 19.22C21.5166 19.22 21.3931 18.9729 21.3931 18.6709C21.3931 18.3689 21.3004 18.1206 21.1874 18.1195C21.0744 18.1184 20.8517 17.8403 20.6929 17.5018C20.5341 17.1632 19.7321 15.5888 18.9107 14.0032C18.0893 12.4175 17.3243 11.079 17.211 11.0287C17.0975 10.9782 17.0048 10.7003 17.0048 10.4109C17.0048 10.1213 17.1087 9.88458 17.236 9.88458C17.363 9.88458 17.7643 10.4716 18.1274 11.1888C18.4905 11.906 18.8803 12.5342 18.9933 12.5844C19.1063 12.635 19.199 12.9128 19.199 13.2022C19.199 13.4919 19.3224 13.7286 19.4732 13.7286C19.6241 13.7286 19.7475 13.9757 19.7475 14.2777C19.7475 14.5798 19.8709 14.8269 20.0218 14.8269C20.1726 14.8269 20.296 15.074 20.296 15.376C20.296 15.678 20.4195 15.9252 20.5703 15.9252C20.7212 15.9252 20.8446 16.1723 20.8446 16.4743C20.8446 16.7763 20.945 17.0235 21.0676 17.0235C21.1904 17.0235 21.4603 17.4559 21.6674 17.9845C21.8745 18.513 22.1213 18.9455 22.2159 18.9455C22.3106 18.9455 22.5574 19.3779 22.7645 19.9065C22.9716 20.435 23.2414 20.8675 23.3643 20.8675C23.4869 20.8675 23.5873 21.1146 23.5873 21.4166C23.5873 21.7186 23.7107 21.9657 23.8616 21.9657C24.0124 21.9657 24.1358 22.2129 24.1358 22.5149C24.1358 22.8169 24.2593 23.064 24.4101 23.064C24.561 23.064 24.6844 23.3111 24.6844 23.6132C24.6844 23.9152 24.8078 24.1623 24.9587 24.1623C25.1095 24.1623 25.2329 24.4094 25.2329 24.7115C25.2329 25.0135 25.3333 25.2606 25.4559 25.2606C25.5788 25.2606 25.8487 25.6931 26.0557 26.2216C26.2628 26.7502 26.5097 27.1826 26.6043 27.1826C26.6989 27.1826 26.9457 27.6151 27.1528 28.1436C27.3599 28.6722 27.6298 29.1046 27.7527 29.1046C27.8752 29.1046 27.9756 29.3517 27.9756 29.6538C27.9756 29.9558 28.0991 30.2029 28.2499 30.2029C28.4008 30.2029 28.5242 30.45 28.5242 30.752C28.5242 31.0541 28.6476 31.3012 28.7984 31.3012C28.9493 31.3012 29.0727 31.4953 29.0727 31.7325C29.0727 31.97 29.2491 32.3407 29.4647 32.5563C29.6871 32.7792 30.3854 32.9486 31.0809 32.9486C31.9471 32.9486 32.3544 32.8209 32.4726 32.512C32.5647 32.2718 32.4238 31.685 32.1591 31.2078C31.8947 30.7306 31.5856 30.299 31.4726 30.2487C31.3596 30.1982 31.2669 29.9305 31.2669 29.6538C31.2669 29.377 31.1742 29.1093 31.0606 29.0588C30.9474 29.0085 30.1953 27.6911 29.3895 26.1313C28.584 24.5714 27.6586 22.7798 27.333 22.15C27.0077 21.5201 26.6487 20.9636 26.5357 20.9133C26.4227 20.8628 26.33 20.5951 26.33 20.3183C26.33 20.0415 26.2307 19.7738 26.1095 19.7233C25.9883 19.6731 25.2241 18.3345 24.4112 16.7489C23.5983 15.1632 22.8026 13.5888 22.643 13.2503C22.4836 12.9117 22.2604 12.6336 22.1474 12.6325C22.0344 12.6314 21.9417 12.3936 21.9417 12.1039C21.9417 11.8145 21.8435 11.5367 21.7234 11.4862C21.6035 11.4359 20.9239 10.2618 20.2135 8.87691C19.1065 6.7196 18.9612 6.25502 19.1979 5.63147C19.4433 4.98513 19.5201 4.94998 19.8852 5.31543C20.1112 5.54168 20.296 5.92087 20.296 6.15837C20.296 6.3956 20.3964 6.58972 20.519 6.58972C20.6419 6.58972 20.9118 7.02217 21.1189 7.55072C21.3259 8.07927 21.5651 8.51227 21.6501 8.51282C21.7349 8.51337 22.1131 9.19239 22.4902 10.0219C22.8673 10.8514 23.2686 11.5304 23.3816 11.5309C23.4946 11.5315 23.5873 11.7791 23.5873 12.0812C23.5873 12.3832 23.7107 12.6303 23.8616 12.6303C24.0124 12.6303 24.1358 12.8774 24.1358 13.1794C24.1358 13.4815 24.2593 13.7286 24.4101 13.7286C24.561 13.7286 24.6844 13.9653 24.6844 14.2549C24.6844 14.5443 24.7771 14.8222 24.8901 14.8727C25.0031 14.923 25.3736 15.4894 25.7129 16.1311C26.0522 16.7728 26.6078 17.823 26.9471 18.465C27.2864 19.1069 27.6569 19.6731 27.7699 19.7233C27.8829 19.7738 27.9756 20.0517 27.9756 20.3411C27.9756 20.6308 28.0991 20.8675 28.2499 20.8675C28.4008 20.8675 28.5242 21.1146 28.5242 21.4166C28.5242 21.7186 28.6476 21.9657 28.7984 21.9657C28.9493 21.9657 29.0727 22.2129 29.0727 22.5149C29.0727 22.8169 29.1961 23.064 29.347 23.064C29.4978 23.064 29.6213 23.3111 29.6213 23.6132C29.6213 23.9152 29.7216 24.1623 29.8442 24.1623C29.9671 24.1623 30.237 24.5948 30.4441 25.1233C30.6511 25.6519 30.898 26.0843 30.9926 26.0843C31.0872 26.0843 31.3341 26.5168 31.5412 27.0453C31.7482 27.5739 32.0181 28.0063 32.141 28.0063C32.2636 28.0063 32.364 28.2534 32.364 28.5555C32.364 28.8575 32.4874 29.1046 32.6382 29.1046C32.7891 29.1046 32.9125 29.3517 32.9125 29.6538C32.9125 29.9558 33.0359 30.2029 33.1868 30.2029C33.3376 30.2029 33.4611 30.45 33.4611 30.752C33.4611 31.0541 33.5845 31.3012 33.7353 31.3012C33.8862 31.3012 34.0096 31.4953 34.0096 31.7325C34.0096 31.97 34.186 32.3407 34.4015 32.5563C34.6709 32.8262 35.432 32.9486 36.8406 32.9486C38.4588 32.9486 38.9229 32.8572 39.0551 32.512C39.1472 32.2718 39.0063 31.685 38.7416 31.2078C38.4772 30.7306 38.1681 30.299 38.0551 30.2487C37.9421 30.1982 37.8494 29.9305 37.8494 29.6538C37.8494 29.377 37.7567 29.1093 37.6431 29.0588C37.5299 29.0085 36.7649 27.67 35.9435 26.0843C35.122 24.4987 34.3201 22.9243 34.1613 22.5857C34.0025 22.2472 33.7798 21.969 33.6668 21.9679C33.5538 21.9668 33.4611 21.7186 33.4611 21.4166C33.4611 21.1146 33.3376 20.8675 33.1868 20.8675C33.0359 20.8675 32.9125 20.6203 32.9125 20.3183C32.9125 20.0163 32.8198 19.7681 32.7068 19.767C32.5938 19.7659 32.3711 19.4877 32.2123 19.1492C32.0535 18.8106 31.2515 17.2362 30.4301 15.6506C29.6086 14.0649 28.8437 12.7264 28.7304 12.6762C28.6169 12.6256 28.5242 12.3478 28.5242 12.0584C28.5242 11.7687 28.4315 11.5309 28.3185 11.5298C28.2055 11.5287 27.9822 11.2506 27.8229 10.912C27.6632 10.5735 26.8676 8.99909 26.0546 7.41344C25.2417 5.82779 24.4776 4.48925 24.3564 4.439C24.2351 4.38848 24.1358 4.11061 24.1358 3.82122C24.1358 3.53154 24.0431 3.29294 23.9301 3.29047C23.8171 3.28772 23.3583 2.54638 22.9109 1.64304L22.0975 0H19.5511C17.2245 0 17.0048 0.0453044 17.0048 0.526354ZM37.3837 8.77312C37.303 9.08256 37.1278 9.33544 36.9945 9.33544C36.8615 9.33544 36.7523 9.58255 36.7523 9.88458C36.7523 10.1866 36.6289 10.4337 36.478 10.4337C36.3272 10.4337 36.2038 10.6704 36.2038 10.9601C36.2038 11.2495 36.1111 11.5273 35.9981 11.5779C35.8851 11.6281 35.4961 12.2253 35.1344 12.9049C34.7723 13.5844 34.3404 14.4175 34.1744 14.756C34.0082 15.0946 33.7798 15.3727 33.6668 15.3738C33.5538 15.3749 33.4611 15.6231 33.4611 15.9252C33.4611 16.2272 33.3376 16.4743 33.1868 16.4743C33.0359 16.4743 32.9125 16.7214 32.9125 17.0235C32.9125 17.3255 32.7891 17.5726 32.6382 17.5726C32.4874 17.5726 32.364 17.8197 32.364 18.1217C32.364 18.4238 32.4874 18.6709 32.6382 18.6709C32.7891 18.6709 32.9125 18.9076 32.9125 19.1972C32.9125 19.4866 33.0052 19.7645 33.1182 19.815C33.2312 19.8653 33.5321 20.2771 33.7866 20.7302C34.0411 21.1832 34.3472 21.5391 34.4671 21.5207C34.5869 21.5025 34.9218 21.0701 35.2109 20.5597C35.5 20.0495 36.1305 18.8905 36.6116 17.9845C37.0929 17.0784 38.0916 15.1632 38.831 13.7286C39.5702 12.294 40.2383 11.0584 40.3154 10.9829C40.3927 10.9074 40.605 10.5367 40.7874 10.1592C40.9695 9.78162 41.1546 9.22561 41.1982 8.92358C41.2701 8.42688 41.0992 8.36675 39.4042 8.29262C37.7109 8.21903 37.5164 8.26516 37.3837 8.77312ZM42.3173 8.7863C42.2383 9.08833 42.0647 9.33544 41.9314 9.33544C41.7983 9.33544 41.6892 9.58255 41.6892 9.88458C41.6892 10.1866 41.5658 10.4337 41.4149 10.4337C41.2641 10.4337 41.1406 10.6808 41.1406 10.9829C41.1406 11.2849 41.0172 11.532 40.8664 11.532C40.7155 11.532 40.5921 11.7791 40.5921 12.0812C40.5921 12.3832 40.4994 12.6314 40.3864 12.6325C40.2734 12.6336 40.0449 12.9117 39.8787 13.2503C39.7128 13.5888 39.2808 14.4219 38.9188 15.1014C38.557 15.781 38.1681 16.3782 38.0551 16.4285C37.9421 16.479 37.8494 16.7568 37.8494 17.0462C37.8494 17.3359 37.726 17.5726 37.5751 17.5726C37.4243 17.5726 37.3008 17.8197 37.3008 18.1217C37.3008 18.4238 37.1774 18.6709 37.0266 18.6709C36.8757 18.6709 36.7523 18.918 36.7523 19.22C36.7523 19.5221 36.6289 19.7692 36.478 19.7692C36.3272 19.7692 36.2038 20.0163 36.2038 20.3183C36.2038 20.6203 36.1111 20.8686 35.9981 20.8697C35.8851 20.8708 35.6382 21.2044 35.4495 21.6107C35.2611 22.0174 35.1067 22.5476 35.1067 22.7895C35.1067 23.0314 35.2611 23.5616 35.4495 23.9682C35.6382 24.3746 35.8851 24.7082 35.9981 24.7093C36.1111 24.7104 36.2038 24.907 36.2038 25.1461C36.2038 25.3853 36.3436 25.5344 36.5148 25.4772C36.6859 25.4201 37.3203 24.4523 37.9245 23.3262C38.5285 22.2005 39.639 20.1055 40.3919 18.6709C41.1448 17.2362 42.1321 15.3829 42.5863 14.5523C43.0405 13.7217 43.8883 12.1506 44.4706 11.0611C45.0526 9.97162 45.529 8.89063 45.529 8.65862C45.529 8.32996 45.1913 8.23715 43.9947 8.23715C42.6914 8.23715 42.439 8.3198 42.3173 8.7863ZM47.1746 8.7863C47.1746 9.08833 47.0512 9.33544 46.9003 9.33544C46.7495 9.33544 46.6261 9.57212 46.6261 9.86179C46.6261 10.1512 46.5334 10.4291 46.4204 10.4796C46.3074 10.5298 45.9184 11.127 45.5567 11.8066C45.1946 12.4862 44.7627 13.3192 44.5967 13.6577C44.4305 13.9963 44.202 14.2744 44.0891 14.2755C43.9761 14.2766 43.8833 14.5248 43.8833 14.8269C43.8833 15.1289 43.7599 15.376 43.6091 15.376C43.4582 15.376 43.3348 15.6231 43.3348 15.9252C43.3348 16.2272 43.2114 16.4743 43.0605 16.4743C42.9097 16.4743 42.7863 16.7214 42.7863 17.0235C42.7863 17.3255 42.6628 17.5726 42.512 17.5726C42.3611 17.5726 42.2377 17.8197 42.2377 18.1217C42.2377 18.4238 42.1143 18.6709 41.9635 18.6709C41.8126 18.6709 41.6892 18.918 41.6892 19.22C41.6892 19.5221 41.5965 19.7703 41.4835 19.7714C41.3705 19.7725 41.142 20.0506 40.9758 20.3892C40.8099 20.7277 40.3779 21.5607 40.0159 22.2403C39.6541 22.9199 39.2652 23.5171 39.1522 23.5673C39.0392 23.6178 38.9465 23.8957 38.9465 24.1851C38.9465 24.4748 38.823 24.7115 38.6722 24.7115C38.5214 24.7115 38.3979 24.9586 38.3979 25.2606C38.3979 25.5626 38.2745 25.8097 38.1237 25.8097C37.9728 25.8097 37.8494 26.0569 37.8494 26.3589C37.8494 26.6609 37.726 26.908 37.5751 26.908C37.4243 26.908 37.3008 27.1551 37.3008 27.4572C37.3008 27.7592 37.4243 28.0063 37.5751 28.0063C37.726 28.0063 37.8494 28.2534 37.8494 28.5555C37.8494 28.8575 37.9426 29.1046 38.0567 29.1046C38.1708 29.1046 38.4407 29.5063 38.6568 29.997C38.873 30.4876 39.2196 31.0607 39.4273 31.2699C39.642 31.4865 39.9009 31.5456 40.0279 31.4072C40.1511 31.2735 40.8387 30.0519 41.5562 28.6928C42.2734 27.3336 43.4769 25.0478 44.2306 23.6132C44.984 22.1785 45.9719 20.3252 46.4261 19.4946C46.88 18.664 47.6463 17.2431 48.1288 16.337C48.6115 15.4309 49.6123 13.5158 50.3531 12.0812C51.0939 10.6465 51.7928 9.43154 51.9058 9.38129C52.0188 9.33077 52.1115 9.05291 52.1115 8.76351C52.1115 8.28383 51.8929 8.23715 49.643 8.23715C47.3575 8.23715 47.1746 8.27779 47.1746 8.7863ZM64.7279 8.73138C64.7279 9.00321 64.876 9.37388 65.0571 9.5551C65.313 9.81127 65.313 9.88458 65.0571 9.88458C64.876 9.88458 64.7279 10.1435 64.7279 10.4601C64.7279 10.7764 64.5006 11.3634 64.2225 11.7643C63.9443 12.1652 63.5442 12.8944 63.3327 13.3854C63.1213 13.8763 62.8552 14.2777 62.7411 14.2777C62.627 14.2777 62.5338 14.5248 62.5338 14.8269C62.5338 15.1289 62.4103 15.376 62.2595 15.376C62.1087 15.376 61.9852 15.6231 61.9852 15.9252C61.9852 16.2272 61.8618 16.4743 61.711 16.4743C61.5601 16.4743 61.4367 16.7214 61.4367 17.0235C61.4367 17.3255 61.3133 17.5726 61.1624 17.5726C61.0116 17.5726 60.8881 17.8093 60.8881 18.0989C60.8881 18.3883 60.7954 18.6662 60.6824 18.7167C60.5694 18.767 60.1805 19.3642 59.8188 20.0437C59.4567 20.7233 59.0247 21.5564 58.8588 21.8949C58.6926 22.2334 58.4641 22.5116 58.3511 22.5127C58.2381 22.5138 58.1454 22.762 58.1454 23.064C58.1454 23.3661 58.022 23.6132 57.8712 23.6132C57.7203 23.6132 57.5969 23.8603 57.5969 24.1623C57.5969 24.4643 57.4735 24.7115 57.3226 24.7115C57.1718 24.7115 57.0484 24.9586 57.0484 25.2606C57.0484 25.5626 56.9249 25.8097 56.7741 25.8097C56.6232 25.8097 56.4998 26.0569 56.4998 26.3589C56.4998 26.6609 56.3764 26.908 56.2255 26.908C56.0747 26.908 55.9513 27.1447 55.9513 27.4344C55.9513 27.7238 55.8586 28.0017 55.7456 28.0522C55.6326 28.1024 55.3163 28.5143 55.0429 28.9673C54.7697 29.4204 54.4776 30.0071 54.394 30.2715C54.31 30.536 54.1326 30.752 53.9993 30.752C53.8663 30.752 53.7571 30.9992 53.7571 31.3012C53.7571 31.6032 53.6337 31.8503 53.4828 31.8503C53.332 31.8503 53.2086 32.0974 53.2086 32.3995C53.2086 32.8929 53.3915 32.9486 55.0108 32.9486C56.0873 32.9486 56.9513 32.8105 57.1559 32.6054C57.344 32.4168 58.0352 31.2119 58.6918 29.9283C59.3481 28.6447 60.0684 27.3784 60.2919 27.114C60.6621 26.6768 61.4123 26.6335 68.5878 26.6335C72.9267 26.6335 76.6719 26.7084 76.9105 26.8001C77.1491 26.8918 77.3444 27.139 77.3444 27.3493C77.3444 27.5596 77.4448 27.7317 77.5674 27.7317C77.6903 27.7317 77.9601 28.1642 78.1672 28.6928C78.3743 29.2213 78.6442 29.6538 78.767 29.6538C78.8896 29.6538 78.99 29.9009 78.99 30.2029C78.99 30.5049 79.1134 30.752 79.2643 30.752C79.4151 30.752 79.5386 30.9992 79.5386 31.3012C79.5386 31.6032 79.662 31.8503 79.8128 31.8503C79.9637 31.8503 80.0871 32.0225 80.0871 32.2328C80.0871 32.4431 80.2824 32.6902 80.521 32.7819C80.7596 32.8737 81.6211 32.9486 82.4357 32.9486C83.7966 32.9486 83.9307 32.8915 84.0931 32.2441L84.2697 31.5395L84.5857 32.1754C84.8745 32.757 85.1057 32.8182 87.2941 32.8907C89.3687 32.9593 89.6866 32.9096 89.6866 32.5159C89.6866 32.2663 89.347 31.4275 88.9324 30.6518C88.5176 29.8764 88.0857 29.2007 87.9724 29.1505C87.8591 29.0999 87.7667 28.8322 87.7667 28.5555C87.7667 28.2787 87.6674 28.011 87.5462 27.9605C87.425 27.9102 86.6608 26.5717 85.8479 24.986C85.035 23.4004 84.2393 21.826 84.0797 21.4874C83.9203 21.1489 83.6973 20.8708 83.5841 20.8697C83.4708 20.8686 83.3784 20.6308 83.3784 20.3411C83.3784 20.0517 83.2857 19.7738 83.1721 19.7233C83.0588 19.6731 82.2939 18.3345 81.4725 16.7489C80.651 15.1632 79.849 13.5888 79.6902 13.2503C79.5314 12.9117 79.309 12.6336 79.1957 12.6325C79.0825 12.6314 78.99 12.3832 78.99 12.0812C78.99 11.7791 78.8968 11.532 78.7827 11.532C78.6686 11.532 78.4025 11.1306 78.1911 10.6397C77.9796 10.1487 77.5709 9.40738 77.2827 8.99223C76.7898 8.28218 76.6354 8.23715 74.7021 8.23715C73.571 8.23715 72.4144 8.36098 72.1319 8.51255C71.7885 8.69651 71.5617 8.69651 71.4481 8.51255C71.3497 8.3533 69.8963 8.23715 68.003 8.23715C65.0321 8.23715 64.7279 8.28301 64.7279 8.73138ZM97.0919 9.33544V10.4337H101.48H105.869V9.33544V8.23715H101.48H97.0919V9.33544ZM72.4034 9.40408C72.3998 9.90353 72.3483 9.94307 72.1333 9.61001C71.9871 9.38349 71.8656 9.10562 71.8631 8.99223C71.8609 8.87883 71.9824 8.7863 72.1333 8.7863C72.2841 8.7863 72.4056 9.06444 72.4034 9.40408ZM73.2956 11.0197C73.4473 11.1155 73.5145 11.3626 73.4451 11.5688C73.3653 11.806 73.1555 11.6289 72.8741 11.0864C72.6294 10.6147 72.517 10.1402 72.6242 10.032C72.7312 9.92385 72.8642 10.0625 72.9193 10.3404C72.9744 10.6182 73.1437 10.9238 73.2956 11.0197ZM69.9991 13.1336C70.1171 13.1841 70.2134 13.462 70.2134 13.7514C70.2134 14.0411 70.3368 14.2777 70.4876 14.2777C70.6385 14.2777 70.7619 14.5248 70.7619 14.8269C70.7619 15.1289 70.8853 15.376 71.0362 15.376C71.187 15.376 71.3104 15.6231 71.3104 15.9252C71.3104 16.2272 71.4339 16.4743 71.5847 16.4743C71.7356 16.4743 71.859 16.7214 71.859 17.0235C71.859 17.3255 71.9594 17.5726 72.082 17.5726C72.2048 17.5726 72.4747 18.005 72.6818 18.5336C72.8889 19.0621 73.1357 19.4946 73.2303 19.4946C73.325 19.4946 73.5718 19.927 73.7789 20.4556C73.986 20.9841 74.2558 21.4166 74.3787 21.4166C74.5013 21.4166 74.6017 21.6637 74.6017 21.9657C74.6017 22.2678 74.7251 22.5149 74.876 22.5149C75.0268 22.5149 75.1502 22.762 75.1502 23.064C75.1502 23.3661 75.2737 23.6132 75.4245 23.6132C75.5754 23.6132 75.6988 23.7367 75.6988 23.8877C75.6988 24.0635 73.2303 24.1623 68.842 24.1623C65.0708 24.1623 61.9852 24.0882 61.9852 23.9978C61.9852 23.9072 62.6309 22.5791 63.4202 21.0462C64.2093 19.5133 64.9191 18.1972 64.9973 18.1217C65.0754 18.0462 65.8025 16.6871 66.6133 15.1014C67.424 13.5158 68.2775 12.0007 68.5101 11.7346C68.9073 11.2802 68.9591 11.3055 69.359 12.1465C69.5932 12.6391 69.8812 13.0833 69.9991 13.1336ZM74.0531 12.3557C74.0531 12.5067 73.9297 12.6303 73.7789 12.6303C73.628 12.6303 73.5046 12.5067 73.5046 12.3557C73.5046 12.2047 73.628 12.0812 73.7789 12.0812C73.9297 12.0812 74.0531 12.2047 74.0531 12.3557ZM89.138 12.3222C89.138 12.4546 89.3232 12.7168 89.5495 12.9049C89.9011 13.197 89.9609 14.6761 89.9609 23.0975V32.9486H92.9337H95.9068L96.7049 32.0554C97.144 31.5642 98.0582 30.483 98.7364 29.6529C99.4144 28.8229 100.118 27.986 100.301 27.7935C100.483 27.6011 101.1 26.8597 101.672 26.1461C102.244 25.4325 102.898 24.6634 103.126 24.4369C103.353 24.2104 104.008 23.4413 104.58 22.7277C105.152 22.0141 105.771 21.2727 105.956 21.0802C106.14 20.8878 106.782 20.1236 107.383 19.382L108.474 18.0339L108.611 25.4226L108.748 32.8113L110.042 32.8945C110.753 32.9404 111.586 32.8435 111.893 32.679C112.268 32.478 112.451 32.4733 112.451 32.6644C112.451 32.8366 113.316 32.9486 114.645 32.9486C116.457 32.9486 116.839 32.8734 116.839 32.5173C116.839 32.2798 116.654 31.9003 116.428 31.6738C116.078 31.3234 116.017 29.8303 116.017 21.6717V12.0812H112.716H109.416L108.465 13.0331C107.942 13.5564 107.514 14.1001 107.514 14.2407C107.514 14.3815 106.897 15.1275 106.143 15.8988C105.389 16.6698 104.771 17.4048 104.771 17.532C104.771 17.6591 104.031 18.5424 103.126 19.4946C102.221 20.4468 101.48 21.3403 101.48 21.48C101.48 21.6198 101.013 22.1879 100.443 22.7422C99.8725 23.2969 99.1051 24.1829 98.7375 24.7115C98.37 25.24 97.6026 26.1261 97.0321 26.6807C96.4616 27.235 95.9948 27.807 95.9948 27.9517C95.9948 28.0964 95.4967 28.7284 94.8881 29.3564C94.2795 29.9843 93.6624 30.4242 93.5168 30.3341C93.3555 30.2345 93.2521 26.6401 93.2521 21.1258V12.0812H91.1951C90.0637 12.0812 89.138 12.1896 89.138 12.3222ZM117.388 12.3557C117.388 12.5067 117.511 12.6303 117.662 12.6303C117.813 12.6303 117.936 12.8774 117.936 13.1794C117.936 13.4815 118.06 13.7286 118.211 13.7286C118.388 13.7286 118.485 17.1149 118.485 23.3386V32.9486H120.076C120.951 32.9486 121.801 32.8143 121.965 32.6502C122.179 32.4352 122.314 32.4352 122.447 32.6502C122.573 32.8539 125.145 32.9486 130.556 32.9486C135.787 32.9486 138.742 32.8437 139.248 32.6397C139.67 32.47 140.324 32.193 140.701 32.0241C141.078 31.855 141.77 31.3448 142.238 30.8901C142.706 30.4352 143.354 29.5436 143.678 28.9083C144.088 28.1041 144.267 27.2493 144.267 26.0923C144.267 24.9923 144.077 24.0281 143.707 23.2392C143.399 22.5838 142.767 21.6582 142.303 21.1829C141.839 20.7074 141.354 20.3183 141.226 20.3183C141.098 20.3183 141.227 19.9166 141.513 19.426C141.799 18.9353 142.113 18.0899 142.212 17.5476C142.31 17.0053 142.256 16.0592 142.091 15.4447C141.926 14.8302 141.449 13.9765 141.033 13.5476C140.616 13.1185 140.002 12.6133 139.669 12.4244C139.212 12.1657 136.389 12.0812 128.225 12.0812C121.183 12.0812 117.388 12.1773 117.388 12.3557ZM144.815 12.3329C144.815 12.4713 144.969 12.6358 145.158 12.6987C145.421 12.7865 145.517 14.9982 145.572 22.2631C145.611 27.4605 145.706 31.9912 145.783 32.3308C145.908 32.8855 146.087 32.9486 147.534 32.9486C148.75 32.9486 149.186 32.8421 149.311 32.5142C149.403 32.2754 149.478 27.5802 149.478 22.0805V12.0812H147.146C145.864 12.0812 144.815 12.1946 144.815 12.3329ZM149.817 22.4462L149.889 32.8113L158.323 32.8838L166.757 32.9566V31.8542C166.757 31.2482 166.726 30.7268 166.688 30.6958C166.65 30.6647 163.596 30.5719 159.9 30.4898L153.18 30.3402V25.947V21.5539L159.969 21.4806L166.757 21.407V20.3136V19.22H159.9H153.043V16.7489V14.2777H159.9H166.757V13.1794V12.0812H158.251H149.745L149.817 22.4462ZM167.854 12.3557C167.854 12.5067 167.977 12.6303 168.128 12.6303C168.306 12.6303 168.402 16.069 168.402 22.3971C168.402 30.4959 168.469 32.2312 168.794 32.5563C169.019 32.7814 169.718 32.9486 170.434 32.9486H171.682L171.757 27.2512L171.831 21.5539L179.716 21.4811L187.601 21.4081V27.1785V32.9486H188.943C189.914 32.9486 190.331 32.8284 190.452 32.5142C190.543 32.2754 190.618 27.5802 190.618 22.0805V12.0812H189.11H187.601V15.6506V19.22H179.647H171.694V15.6506V12.0812H169.774C168.677 12.0812 167.854 12.1989 167.854 12.3557ZM190.893 22.5149V32.9486H193.224C194.911 32.9486 195.553 32.8536 195.546 32.6054C195.542 32.4168 195.357 32.0222 195.135 31.7292C194.799 31.2842 194.732 29.6172 194.732 21.6387V12.0812H192.812H190.893V22.5149ZM195.998 12.3058C195.921 12.4293 196.099 12.7036 196.393 12.9156C196.905 13.2849 196.927 13.7058 196.927 23.1247V32.9486H198.817C200.288 32.9486 200.745 32.8522 200.874 32.5142C200.966 32.2754 201.041 27.5802 201.041 22.0805V12.0812H198.588C197.239 12.0812 196.074 12.1822 195.998 12.3058ZM201.315 22.5149V32.9486H202.683H204.05L204.123 23.6818L204.195 14.415L210.979 14.3417L217.763 14.2681L217.934 13.5872C218.028 13.2127 218.033 12.7204 217.946 12.4936C217.811 12.1394 216.625 12.0812 209.551 12.0812H201.315V22.5149ZM224.354 12.3557C224.354 12.5067 223.983 12.6303 223.531 12.6303C223.078 12.6303 222.708 12.7539 222.708 12.9049C222.708 13.0559 222.537 13.1794 222.328 13.1794C222.12 13.1794 221.132 13.9732 220.134 14.9433C219.136 15.9134 218.32 16.9018 218.32 17.1399C218.32 17.3779 218.196 17.5726 218.045 17.5726C217.895 17.5726 217.771 17.8197 217.771 18.1217C217.771 18.4238 217.648 18.6709 217.497 18.6709C217.346 18.6709 217.223 19.1577 217.223 19.753C217.223 20.3482 217.099 20.9114 216.948 21.0047C216.797 21.0981 216.674 21.7159 216.674 22.3776C216.674 23.0393 216.797 23.6571 216.948 23.7505C217.099 23.8438 217.223 24.3452 217.223 24.8649C217.223 25.3847 217.346 25.8097 217.497 25.8097C217.648 25.8097 217.771 26.1186 217.771 26.4962C217.771 26.8737 217.895 27.1826 218.045 27.1826C218.196 27.1826 218.32 27.3679 218.32 27.5945C218.32 27.821 218.443 28.0063 218.594 28.0063C218.745 28.0063 218.868 28.1549 218.868 28.3361C218.868 28.5176 219.432 29.1996 220.122 29.8514C220.811 30.5036 221.953 31.3226 222.659 31.6719C223.365 32.0208 224.621 32.4604 225.451 32.6488C226.423 32.8695 228.275 32.9497 230.662 32.8745C232.698 32.81 234.735 32.6653 235.187 32.553C235.64 32.4407 236.546 32.1068 237.202 31.8113C237.858 31.5156 238.652 31.0326 238.968 30.7383C239.284 30.4437 239.624 30.2029 239.725 30.2029C239.826 30.2029 240.437 29.4767 241.082 28.589C241.728 27.7013 242.423 26.4967 242.626 25.9119C242.832 25.321 242.998 23.7181 243 22.3029C243.003 20.0739 242.905 19.538 242.207 17.9968C241.768 17.0284 240.867 15.6931 240.204 15.0295C239.541 14.3656 238.604 13.6479 238.121 13.434C237.639 13.2204 237.244 12.9521 237.244 12.8379C237.244 12.7237 236.936 12.6303 236.559 12.6303C236.182 12.6303 235.873 12.5067 235.873 12.3557C235.873 12.1814 233.77 12.0812 230.113 12.0812C226.456 12.0812 224.354 12.1814 224.354 12.3557ZM74.6017 13.454C74.6017 13.605 74.4783 13.7286 74.3274 13.7286C74.1766 13.7286 74.0531 13.605 74.0531 13.454C74.0531 13.303 74.1766 13.1794 74.3274 13.1794C74.4783 13.1794 74.6017 13.303 74.6017 13.454ZM75.1502 14.415C75.1502 14.6415 75.0307 14.8269 74.8845 14.8269C74.7386 14.8269 74.69 14.6415 74.7767 14.415C74.8636 14.1885 74.9832 14.0032 75.0424 14.0032C75.1017 14.0032 75.1502 14.1885 75.1502 14.415ZM15.4398 15.3129C15.654 15.725 16.1247 16.6185 16.4856 17.298C16.8465 17.9776 17.2346 18.5748 17.3476 18.625C17.4606 18.6755 17.5533 18.9534 17.5533 19.2428C17.5533 19.5325 17.6768 19.7692 17.8276 19.7692C17.9785 19.7692 18.1019 20.0163 18.1019 20.3183C18.1019 20.6203 18.2253 20.8675 18.3762 20.8675C18.527 20.8675 18.6504 21.1146 18.6504 21.4166C18.6504 21.7186 18.7431 21.9668 18.8561 21.9679C18.9691 21.969 19.2162 22.3026 19.4047 22.709C19.5934 23.1156 19.7475 23.6088 19.7475 23.8051C19.7475 24.0854 18.6551 24.1623 14.6735 24.1623C11.8828 24.1623 9.59948 24.0662 9.59948 23.9487C9.59948 23.8315 9.98154 22.9973 10.4484 22.0953C10.9152 21.1936 11.7481 19.5907 12.2997 18.5336C12.851 17.4765 13.3702 16.5498 13.4535 16.4743C13.5369 16.3988 13.8216 15.8708 14.0866 15.3011C14.3515 14.7313 14.6765 14.3321 14.8093 14.4142C14.9417 14.496 15.2253 14.9005 15.4398 15.3129ZM138.72 14.7052C139.231 15.0638 139.33 15.3906 139.33 16.733C139.33 18.1308 139.244 18.3892 138.654 18.7766C138.082 19.1517 137.025 19.22 131.797 19.22H125.616V16.932C125.616 15.6734 125.698 14.5614 125.799 14.4609C125.899 14.3601 128.711 14.2777 132.046 14.2777C137.091 14.2777 138.213 14.3497 138.72 14.7052ZM235.672 14.8645C236.304 15.1871 237.348 16.01 237.993 16.6929C238.637 17.3757 239.164 18.1621 239.164 18.44C239.164 18.7181 239.288 18.9455 239.439 18.9455C239.589 18.9455 239.713 19.4323 239.713 20.0275C239.713 20.6228 239.848 21.1934 240.013 21.2955C240.198 21.4097 240.246 21.8663 240.138 22.4786C240.041 23.0272 239.893 24.0009 239.81 24.6428C239.726 25.2848 239.547 25.8097 239.411 25.8097C239.275 25.8097 239.164 26.0569 239.164 26.3589C239.164 26.6609 239.041 26.908 238.89 26.908C238.739 26.908 238.615 27.0626 238.615 27.2512C238.615 27.4402 238.323 27.9341 237.966 28.3495C237.61 28.765 237.116 29.1046 236.87 29.1046C236.623 29.1046 236.422 29.198 236.422 29.3122C236.422 29.4264 236.021 29.7043 235.53 29.93C234.846 30.2452 233.508 30.3402 229.76 30.3402C225.723 30.3402 224.837 30.2693 224.622 29.9283C224.475 29.6958 224.36 26.3353 224.358 22.2137L224.354 14.9109L224.971 14.6127C225.331 14.4389 227.446 14.3071 230.056 14.2964C234.099 14.2794 234.633 14.3335 235.672 14.8645ZM75.6118 15.7022C75.5243 15.921 75.4593 15.856 75.4462 15.5361C75.4344 15.2467 75.4991 15.0847 75.5902 15.1759C75.6812 15.267 75.6911 15.504 75.6118 15.7022ZM76.2473 16.6116C76.2473 16.8381 76.1988 17.0235 76.1395 17.0235C76.0803 17.0235 75.9607 16.8381 75.8738 16.6116C75.7871 16.3851 75.8356 16.1997 75.9816 16.1997C76.1277 16.1997 76.2473 16.3851 76.2473 16.6116ZM76.7917 17.6412C76.7885 18.1237 76.7322 18.1717 76.5356 17.8603C76.3968 17.641 76.3444 17.3631 76.4187 17.2426C76.4931 17.122 76.6083 17.0235 76.6749 17.0235C76.7415 17.0235 76.7939 17.3016 76.7917 17.6412ZM77.684 19.2568C77.8356 19.3526 77.9028 19.5998 77.8334 19.806C77.7536 20.0432 77.5438 19.8661 77.2624 19.3235C77.0177 18.8518 76.9053 18.3774 77.0125 18.2692C77.1195 18.161 77.2525 18.2997 77.3076 18.5775C77.3628 18.8554 77.532 19.161 77.684 19.2568ZM78.4415 20.7464C78.4415 20.9817 78.3181 21.0981 78.1672 21.0047C78.0164 20.9114 77.8929 20.7189 77.8929 20.5767C77.8929 20.4345 78.0164 20.3183 78.1672 20.3183C78.3181 20.3183 78.4415 20.5111 78.4415 20.7464ZM220.486 22.5835C220.46 24.6346 220.431 24.7504 220.182 23.8089C220.03 23.2373 219.989 22.2178 220.09 21.5437C220.19 20.8697 220.327 20.3183 220.393 20.3183C220.46 20.3183 220.501 21.3378 220.486 22.5835ZM78.99 21.6912C78.99 21.8422 78.8666 21.9657 78.7158 21.9657C78.5649 21.9657 78.4415 21.8422 78.4415 21.6912C78.4415 21.5402 78.5649 21.4166 78.7158 21.4166C78.8666 21.4166 78.99 21.5402 78.99 21.6912ZM138.762 21.7598C139.3 21.9487 139.889 22.2422 140.069 22.4122C140.25 22.5822 140.651 23.173 140.961 23.7246C141.279 24.2927 141.524 25.2274 141.524 25.8787C141.524 26.5113 141.248 27.6022 140.911 28.3031C140.517 29.1211 140.001 29.7139 139.471 29.9588C138.839 30.2501 137.12 30.3402 132.199 30.3402H125.753L125.677 26.2337C125.635 23.9751 125.662 21.9674 125.737 21.7719C125.843 21.4962 127.209 21.4166 131.828 21.4166C135.886 21.4166 138.094 21.5259 138.762 21.7598ZM79.5386 22.6522C79.5386 22.8787 79.419 23.064 79.2728 23.064C79.1269 23.064 79.0783 22.8787 79.165 22.6522C79.252 22.4256 79.3715 22.2403 79.4308 22.2403C79.49 22.2403 79.5386 22.4256 79.5386 22.6522ZM80.0002 23.9394C79.9127 24.1582 79.8477 24.0931 79.8345 23.7732C79.8227 23.4838 79.8874 23.3219 79.9785 23.413C80.0696 23.5042 80.0794 23.7411 80.0002 23.9394ZM80.6357 24.8487C80.6357 25.0753 80.5871 25.2606 80.5279 25.2606C80.4686 25.2606 80.349 25.0753 80.2621 24.8487C80.1754 24.6222 80.224 24.4369 80.3699 24.4369C80.5161 24.4369 80.6357 24.6222 80.6357 24.8487ZM81.1801 25.8784C81.1768 26.3608 81.1206 26.4089 80.9239 26.0975C80.7851 25.8781 80.7327 25.6002 80.8071 25.4797C80.8814 25.3592 80.9966 25.2606 81.0632 25.2606C81.1299 25.2606 81.1823 25.5387 81.1801 25.8784ZM82.0723 27.494C82.224 27.5898 82.2911 27.8369 82.2218 28.0431C82.1419 28.2803 81.9321 28.1032 81.6507 27.5607C81.4061 27.089 81.2936 26.6145 81.4009 26.5063C81.5078 26.3982 81.6409 26.5368 81.696 26.8147C81.7511 27.0925 81.9203 27.3981 82.0723 27.494ZM82.8298 28.9835C82.8298 29.2188 82.7064 29.3352 82.5555 29.2419C82.4047 29.1485 82.2813 28.9561 82.2813 28.8138C82.2813 28.6716 82.4047 28.5555 82.5555 28.5555C82.7064 28.5555 82.8298 28.7482 82.8298 28.9835ZM83.3784 29.9283C83.3784 30.0793 83.2549 30.2029 83.1041 30.2029C82.9532 30.2029 82.8298 30.0793 82.8298 29.9283C82.8298 29.7773 82.9532 29.6538 83.1041 29.6538C83.2549 29.6538 83.3784 29.7773 83.3784 29.9283ZM83.9269 31.0266C83.9269 31.1776 83.7961 31.3012 83.6365 31.3012C83.4768 31.3012 83.4222 31.1776 83.5155 31.0266C83.6087 30.8756 83.7393 30.752 83.8059 30.752C83.8726 30.752 83.9269 30.8756 83.9269 31.0266Z" fill="#193CA0"/>
<path fill-rule="evenodd" clip-rule="evenodd" d="M11.7936 1.09829C11.9445 1.09829 12.0679 0.851173 12.0679 0.549144C12.0679 0.0609549 12.2509 0 13.7135 0C14.9782 0 15.3592 0.0933544 15.3592 0.403621C15.3592 0.625475 15.0937 1.27401 14.7695 1.84512C14.445 2.41596 13.784 3.62435 13.3008 4.53043C12.8175 5.43652 11.8178 7.35166 11.0794 8.7863C10.3408 10.2209 9.67354 11.4565 9.59674 11.532C9.51967 11.6075 8.85182 12.8431 8.11266 14.2777C7.37323 15.7124 6.37488 17.6275 5.89381 18.5336C5.41301 19.4397 4.77423 20.6135 4.47473 21.142C4.17523 21.6706 3.1489 23.6167 2.19389 25.4665C1.23888 27.3166 0.354632 28.83 0.228742 28.83C0.102852 28.83 0 27.536 0 25.9544C0 23.3647 0.0693906 22.9622 0.697745 21.9045C1.08145 21.2587 1.46625 20.5141 1.55265 20.2497C1.63904 19.9853 1.81869 19.7692 1.95199 19.7692C2.08501 19.7692 2.19417 19.5221 2.19417 19.22C2.19417 18.918 2.31759 18.6709 2.46844 18.6709C2.61929 18.6709 2.74271 18.4238 2.74271 18.1217C2.74271 17.8197 2.86613 17.5726 3.01698 17.5726C3.16783 17.5726 3.29125 17.3255 3.29125 17.0235C3.29125 16.7214 3.41467 16.4743 3.56552 16.4743C3.71637 16.4743 3.83979 16.2376 3.83979 15.948C3.83979 15.6586 3.9325 15.3807 4.0455 15.3302C4.15877 15.2799 4.54741 14.6827 4.90918 14.0032C5.27121 13.3236 5.70319 12.4905 5.86912 12.152C6.03533 11.8135 6.26353 11.5353 6.3768 11.5342C6.49007 11.5331 6.5825 11.2849 6.5825 10.9829C6.5825 10.6808 6.70592 10.4337 6.85677 10.4337C7.00762 10.4337 7.13104 10.1866 7.13104 9.88458C7.13104 9.58255 7.25447 9.33544 7.40531 9.33544C7.55616 9.33544 7.67959 9.08833 7.67959 8.7863C7.67959 8.48427 7.80301 8.23715 7.95386 8.23715C8.10471 8.23715 8.22813 7.99004 8.22813 7.68801C8.22813 7.38598 8.35155 7.13887 8.5024 7.13887C8.65325 7.13887 8.77667 6.89175 8.77667 6.58972C8.77667 6.28769 8.88583 6.04058 9.01885 6.04058C9.15215 6.04058 9.3296 5.82422 9.41353 5.56008C9.49718 5.29594 9.78928 4.70891 10.0625 4.25586C10.3359 3.80282 10.6519 3.39096 10.7651 3.34071C10.8784 3.29019 10.9708 3.01233 10.9708 2.72293C10.9708 2.43353 11.0943 2.19657 11.2451 2.19657C11.396 2.19657 11.5194 1.94946 11.5194 1.64743C11.5194 1.3454 11.6428 1.09829 11.7936 1.09829ZM41.9314 9.33544C42.0647 9.33544 42.2383 9.08833 42.3173 8.7863C42.439 8.3198 42.6914 8.23715 43.9947 8.23715C45.1913 8.23715 45.529 8.32996 45.529 8.65862C45.529 8.89063 45.0526 9.97162 44.4706 11.0611C43.8883 12.1506 43.0405 13.7217 42.5863 14.5523C42.1321 15.3829 41.1448 17.2362 40.3919 18.6709C39.639 20.1055 38.5285 22.2005 37.9245 23.3262C37.3203 24.4523 36.6859 25.4201 36.5148 25.4772C36.3436 25.5344 36.2038 25.3853 36.2038 25.1461C36.2038 24.907 36.1111 24.7104 35.9981 24.7093C35.8851 24.7082 35.6382 24.3746 35.4495 23.9682C35.2611 23.5616 35.1067 23.0314 35.1067 22.7895C35.1067 22.5476 35.2611 22.0174 35.4495 21.6107C35.6382 21.2044 35.8851 20.8708 35.9981 20.8697C36.1111 20.8686 36.2038 20.6203 36.2038 20.3183C36.2038 20.0163 36.3272 19.7692 36.478 19.7692C36.6289 19.7692 36.7523 19.5221 36.7523 19.22C36.7523 18.918 36.8757 18.6709 37.0266 18.6709C37.1774 18.6709 37.3008 18.4238 37.3008 18.1217C37.3008 17.8197 37.4243 17.5726 37.5751 17.5726C37.726 17.5726 37.8494 17.3359 37.8494 17.0462C37.8494 16.7568 37.9421 16.479 38.0551 16.4285C38.1681 16.3782 38.557 15.781 38.9188 15.1014C39.2808 14.4219 39.7128 13.5888 39.8787 13.2503C40.0449 12.9117 40.2734 12.6336 40.3864 12.6325C40.4994 12.6314 40.5921 12.3832 40.5921 12.0812C40.5921 11.7791 40.7155 11.532 40.8664 11.532C41.0172 11.532 41.1406 11.2849 41.1406 10.9829C41.1406 10.6808 41.2641 10.4337 41.4149 10.4337C41.5658 10.4337 41.6892 10.1866 41.6892 9.88458C41.6892 9.58255 41.7983 9.33544 41.9314 9.33544Z" fill="#B22E2F"/>
<path d="M17.236 9.88458C17.363 9.88458 17.7643 10.4716 18.1274 11.1888C18.4905 11.906 18.8803 12.5342 18.9933 12.5844C19.1063 12.635 19.199 12.9128 19.199 13.2022C19.199 13.4919 19.3224 13.7286 19.4732 13.7286C19.6241 13.7286 19.7475 13.9757 19.7475 14.2777C19.7475 14.5798 19.8709 14.8269 20.0218 14.8269C20.1726 14.8269 20.296 15.074 20.296 15.376C20.296 15.678 20.4195 15.9252 20.5703 15.9252C20.7212 15.9252 20.8446 16.1723 20.8446 16.4743C20.8446 16.7763 20.945 17.0235 21.0676 17.0235C21.1904 17.0235 21.4603 17.4559 21.6674 17.9845C21.8745 18.513 22.1213 18.9455 22.2159 18.9455C22.3106 18.9455 22.5574 19.3779 22.7645 19.9065C22.9716 20.435 23.2414 20.8675 23.3643 20.8675C23.4869 20.8675 23.5873 21.1146 23.5873 21.4166C23.5873 21.7186 23.7107 21.9657 23.8616 21.9657C24.0124 21.9657 24.1358 22.2129 24.1358 22.5149C24.1358 22.8169 24.2593 23.064 24.4101 23.064C24.561 23.064 24.6844 23.3111 24.6844 23.6132C24.6844 23.9152 24.8078 24.1623 24.9587 24.1623C25.1095 24.1623 25.2329 24.4094 25.2329 24.7115C25.2329 25.0135 25.3333 25.2606 25.4559 25.2606C25.5788 25.2606 25.8487 25.6931 26.0557 26.2216C26.2628 26.7502 26.5097 27.1826 26.6043 27.1826C26.6989 27.1826 26.9457 27.6151 27.1528 28.1436C27.3599 28.6722 27.6298 29.1046 27.7527 29.1046C27.8752 29.1046 27.9756 29.3517 27.9756 29.6538C27.9756 29.9558 28.0991 30.2029 28.2499 30.2029C28.4008 30.2029 28.5242 30.45 28.5242 30.752C28.5242 31.0541 28.6476 31.3012 28.7984 31.3012C28.9493 31.3012 29.0727 31.4953 29.0727 31.7325C29.0727 31.97 29.2491 32.3407 29.4647 32.5563C29.6871 32.7792 30.3854 32.9486 31.0809 32.9486C31.9471 32.9486 32.3544 32.8209 32.4726 32.512C32.5647 32.2718 32.4238 31.685 32.1591 31.2078C31.8947 30.7306 31.5856 30.299 31.4726 30.2487C31.3596 30.1982 31.2669 29.9305 31.2669 29.6538C31.2669 29.377 31.1742 29.1093 31.0606 29.0588C30.9474 29.0085 30.1953 27.6911 29.3895 26.1313C28.584 24.5714 27.6586 22.7798 27.333 22.15C27.0077 21.5201 26.6487 20.9636 26.5357 20.9133C26.4227 20.8628 26.33 20.5951 26.33 20.3183C26.33 20.0415 26.2307 19.7738 26.1095 19.7233C25.9883 19.6731 25.2241 18.3345 24.4112 16.7489C23.5983 15.1632 22.8026 13.5888 22.643 13.2503C22.4836 12.9117 22.2604 12.6336 22.1474 12.6325C22.0344 12.6314 21.9417 12.3936 21.9417 12.1039C21.9417 11.8145 21.8435 11.5367 21.7234 11.4862C21.6035 11.4359 20.9239 10.2618 20.2135 8.87691C19.1065 6.7196 18.9612 6.25502 19.1979 5.63147L17.236 9.88458Z" fill="#B22E2F"/>
</svg>
